<?xml version="1.0" encoding="UTF-8"?>
<svg id="Calque_1" data-name="Calque 1" xmlns="http://www.w3.org/2000/svg" version="1.1" xmlns:xlink="http://www.w3.org/1999/xlink" viewBox="0 0 643 176">
  <defs>
    <style>
      .cls-1 {
        fill: #0a0f27;
        fill-rule: evenodd;
      }

      .cls-1, .cls-2, .cls-3, .cls-4 {
        stroke-width: 0px;
      }

      .cls-2 {
        fill: url(#Dégradé_sans_nom_2);
      }

      .cls-3 {
        fill: #001952;
      }

      .cls-4 {
        fill: url(#Dégradé_sans_nom);
      }
    </style>
    <linearGradient id="Dégradé_sans_nom" data-name="Dégradé sans nom" x1="100.1" y1="177.8" x2="100.1" y2="2.2" gradientTransform="translate(0 178) scale(1 -1)" gradientUnits="userSpaceOnUse">
      <stop offset="0" stop-color="#043775"/>
      <stop offset="1" stop-color="#12769e"/>
    </linearGradient>
    <linearGradient id="Dégradé_sans_nom_2" data-name="Dégradé sans nom 2" x1="77.1" y1="177.8" x2="77.1" y2="2.2" gradientTransform="translate(0 178) scale(1 -1)" gradientUnits="userSpaceOnUse">
      <stop offset="0" stop-color="#043775"/>
      <stop offset="1" stop-color="#001952"/>
    </linearGradient>
  </defs>
  <path class="cls-3" d="M241.3,112.9c-2.7,0-5.3-.3-7.8-.8-2.5-.5-4.6-1.4-6.6-2.6-1.9-1.2-3.3-2.8-4.4-4.6-1-1.9-1.6-4.1-1.6-6.8v-.7c0-.4.3-.6.7-.6h8.9c.3,0,.5.3.5.5v.6c0,1.5.4,2.7,1.2,3.7.8,1,2,1.8,3.5,2.3,1.5.5,3.3.8,5.4.8s2.5,0,3.5-.2c1-.2,2-.4,2.7-.7.8-.3,1.5-.7,2-1.1.5-.4.9-.9,1.2-1.4.3-.5.4-1.2.4-1.8,0-1.2-.4-2.2-1.2-3-.8-.8-1.9-1.4-3.3-2-1.4-.5-2.9-1-4.6-1.5-1.7-.5-3.5-.9-5.3-1.4-1.8-.5-3.6-1.1-5.3-1.8-1.7-.7-3.3-1.6-4.6-2.6-1.4-1-2.5-2.3-3.3-3.8s-1.2-3.4-1.2-5.6.5-4.3,1.4-6c1-1.7,2.4-3.1,4.2-4.2,1.8-1.1,3.8-1.9,6.1-2.4,2.3-.5,4.8-.8,7.6-.8s5,.3,7.2.8c2.3.5,4.3,1.3,6,2.5,1.7,1.1,3.1,2.6,4,4.3,1,1.7,1.5,3.8,1.5,6.1s-.4.8-.8.8h-8.5c-.3,0-.5-.2-.5-.5,0-1.2-.4-2.3-1.1-3.1-.7-.9-1.8-1.5-3.1-2-1.3-.5-2.9-.8-4.6-.8s-3.5.2-4.9.5c-1.3.4-2.3.9-3.1,1.6-.7.7-1,1.5-1,2.5s.4,2,1.2,2.7c.8.7,1.9,1.3,3.3,1.8,1.4.5,3,1,4.7,1.4,1.7.4,3.5.9,5.3,1.4,1.8.5,3.6,1.1,5.3,1.8,1.7.7,3.3,1.5,4.6,2.6,1.4,1,2.5,2.3,3.3,3.8.8,1.5,1.2,3.3,1.2,5.4,0,3.6-.9,6.5-2.6,8.7-1.7,2.2-4.1,3.8-7.1,4.8-3,1-6.4,1.5-10.3,1.5Z"/>
  <path class="cls-3" d="M286,112.9c-3.9,0-7.2-.7-10-2-2.7-1.4-4.8-3.4-6.2-6.2-1.4-2.8-2.1-6.3-2.1-10.6s.7-7.8,2.1-10.6c1.4-2.8,3.5-4.8,6.2-6.1,2.7-1.4,6.1-2,10-2s7.3.7,10,2c2.7,1.3,4.8,3.4,6.2,6.1,1.4,2.7,2.1,6.3,2.1,10.6s-.7,7.8-2.1,10.6c-1.4,2.8-3.5,4.8-6.2,6.2-2.7,1.3-6,2-10,2ZM286,105.5c2.1,0,3.8-.4,5-1.2,1.3-.8,2.2-2,2.8-3.5.6-1.6.9-3.5.9-5.9v-1.6c0-2.3-.3-4.3-.9-5.9-.6-1.6-1.5-2.8-2.8-3.5-1.2-.8-2.9-1.2-5-1.2s-3.7.4-5,1.2c-1.2.8-2.1,2-2.7,3.5-.6,1.6-.9,3.5-.9,5.9v1.6c0,2.3.3,4.3.9,5.9.6,1.6,1.5,2.8,2.7,3.5,1.3.8,2.9,1.2,5,1.2Z"/>
  <path class="cls-3" d="M312.2,112c-.5,0-.9-.4-.9-.9v-47.5c0-.5.4-.9.9-.9h7.7c.5,0,.9.4.9.9v47.5c0,.5-.4.9-.9.9h-7.7Z"/>
  <path class="cls-3" d="M340.3,112.9c-3.6,0-6.5-1-8.7-3s-3.2-5.2-3.2-9.7v-23.1c0-.5.4-.9.9-.9h7.7c.5,0,.9.4.9.9v21.6c0,1.2.1,2.2.4,3,.3.8.7,1.4,1.2,1.9.5.5,1.2.9,2,1.1.8.2,1.6.3,2.6.3,1.4,0,2.7-.3,3.8-1,1.1-.7,2-1.6,2.7-2.8.6-1.2,1-2.6,1-4.1v-20c0-.5.4-.9.9-.9h7.7c.5,0,.9.4.9.9v34.1c0,.5-.4.9-.9.9h-6.1c-.4,0-.8-.3-.9-.8l-.5-3.8c0-.2-.2-.3-.3-.3s-.2,0-.3.1c-.8,1.1-1.8,2-3,2.9-1.1.9-2.4,1.5-3.9,2-1.5.5-3,.8-4.8.8Z"/>
  <path class="cls-3" d="M378.7,112.9c-2.3,0-4.1-.4-5.5-1.2-1.4-.8-2.4-1.9-3.1-3.3-.6-1.4-1-3-1-4.6v-19.4c0-.5-.4-.9-.9-.9h-7.8c-.5,0-.9-.4-.9-.9v-5.5c0-.5.4-.9.9-.9h8.3c.4,0,.8-.3.9-.7l1.5-8.7c0-.4.4-.7.9-.7h5.7c.5,0,.9.4.9.9v8.4c0,.5.4.9.9.9h4.8c.5,0,.9.4.9.9v5.5c0,.5-.4.9-.9.9h-4.8c-.5,0-.9.4-.9.9v17.8c0,1.1.3,1.9.8,2.5.5.5,1.3.8,2.5.8h2.4c.5,0,.9.4.9.9v4.7c0,.4-.2.7-.6.8-.4.1-.8.2-1.3.3-.7.2-1.5.3-2.3.4-.8.1-1.6.2-2.3.2Z"/>
  <path class="cls-3" d="M393.9,70.9c-.5,0-.9-.4-.9-.9v-6.4c0-.5.4-.9.9-.9h7.7c.5,0,.9.4.9.9v6.4c0,.5-.4.9-.9.9h-7.7ZM393.9,112c-.5,0-.9-.4-.9-.9v-34.1c0-.5.4-.9.9-.9h7.7c.5,0,.9.4.9.9v34.1c0,.5-.4.9-.9.9h-7.7Z"/>
  <path class="cls-3" d="M428.5,112.9c-3.9,0-7.2-.7-10-2-2.7-1.4-4.8-3.4-6.2-6.2-1.4-2.8-2.1-6.3-2.1-10.6s.7-7.8,2.1-10.6c1.4-2.8,3.5-4.8,6.2-6.1,2.7-1.4,6.1-2,10-2s7.3.7,10,2c2.7,1.3,4.8,3.4,6.2,6.1,1.4,2.7,2.1,6.3,2.1,10.6s-.7,7.8-2.1,10.6c-1.4,2.8-3.5,4.8-6.2,6.2-2.7,1.3-6,2-10,2ZM428.5,105.5c2.1,0,3.8-.4,5-1.2,1.3-.8,2.2-2,2.8-3.5.6-1.6.9-3.5.9-5.9v-1.6c0-2.3-.3-4.3-.9-5.9-.6-1.6-1.5-2.8-2.8-3.5-1.2-.8-2.9-1.2-5-1.2s-3.7.4-5,1.2c-1.2.8-2.1,2-2.7,3.5-.6,1.6-.9,3.5-.9,5.9v1.6c0,2.3.3,4.3.9,5.9.6,1.6,1.5,2.8,2.7,3.5,1.3.8,2.9,1.2,5,1.2Z"/>
  <path class="cls-3" d="M455.6,112c-.5,0-.9-.4-.9-.9v-34.1c0-.5.4-.9.9-.9h6.2c.4,0,.8.3.9.8l.6,3.9c0,.2.2.3.3.3s.2,0,.3-.1c.8-1.1,1.7-2.1,2.8-2.9,1.2-.9,2.5-1.5,4-2,1.5-.5,3-.7,4.8-.7s4.4.4,6.2,1.3c1.8.9,3.1,2.2,4.1,4.1,1,1.9,1.5,4.3,1.5,7.3v23.1c0,.5-.4.9-.9.9h-7.7c-.5,0-.9-.4-.9-.9v-21.6c0-1.1-.1-2.1-.4-2.9-.3-.8-.7-1.5-1.2-2-.5-.5-1.1-.9-1.9-1.2-.8-.2-1.6-.3-2.6-.3-1.4,0-2.7.3-3.8,1-1.1.7-2,1.6-2.7,2.8-.6,1.2-1,2.5-1,4.1v20.1c0,.5-.4.9-.9.9h-7.7Z"/>
  <path class="cls-3" d="M511.1,112.9c-2.5,0-4.8-.3-6.8-.8-2-.5-3.7-1.3-5.1-2.3-1.4-1-2.5-2.2-3.3-3.5-.7-1.4-1.1-2.9-1.1-4.6v-.5c0-.3.2-.4.5-.4h8.5c.2,0,.3.1.3.3v.3c0,1.1.4,2.1,1.1,2.8.7.7,1.6,1.2,2.7,1.5,1.1.3,2.3.5,3.5.5s2.1,0,3.1-.3c1-.2,1.9-.6,2.6-1.2.7-.5,1.1-1.3,1.1-2.1s-.5-1.9-1.4-2.5c-.9-.6-2-1.1-3.5-1.4-1.4-.4-3-.8-4.6-1.2-1.5-.4-3.1-.8-4.6-1.2-1.5-.5-3-1.1-4.2-1.9-1.2-.8-2.2-1.8-3-3-.8-1.3-1.2-2.9-1.2-4.8s.4-3.5,1.2-4.8c.8-1.4,1.9-2.6,3.3-3.5,1.5-.9,3.1-1.6,5.1-2,2-.5,4-.7,6.3-.7s4,.2,5.9.7c1.8.4,3.4,1,4.8,1.9,1.4.8,2.4,1.9,3.2,3.1.8,1.2,1.2,2.6,1.2,4.2v.9c0,.3-.3.5-.6.5h-8c-.3,0-.5-.2-.5-.5,0-.8-.2-1.5-.8-2-.5-.6-1.2-1-2.2-1.4-.9-.3-2-.5-3.3-.5s-1.8,0-2.5.2c-.7.1-1.4.3-1.9.6-.5.3-1,.6-1.3,1-.3.4-.4.8-.4,1.4,0,.8.3,1.4,1,1.9.7.5,1.6.8,2.7,1.2,1.1.3,2.3.7,3.6,1,1.6.5,3.3.9,5.1,1.4,1.8.4,3.5,1,5,1.7,1.5.7,2.8,1.8,3.8,3.1,1,1.3,1.4,3.1,1.4,5.4s-.4,4-1.3,5.5c-.8,1.5-2,2.7-3.5,3.6-1.5.9-3.3,1.6-5.3,2-2,.4-4.2.6-6.5.6Z"/>
  <path class="cls-3" d="M569.7,112.9c-4.9,0-9-.8-12.5-2.5-3.5-1.7-6.1-4.4-7.9-8-1.8-3.6-2.7-8.2-2.7-13.7,0-8.2,2-14.3,6-18.2,4-4,9.7-6,17.1-6s7.6.7,10.8,2c3.2,1.4,5.7,3.4,7.5,6.1,1.7,2.5,2.7,5.7,2.8,9.4,0,.5-.4.9-.9.9h-8.4c-.5,0-.9-.4-.9-.9-.1-1.8-.6-3.3-1.3-4.6-.9-1.5-2.1-2.6-3.8-3.4-1.6-.8-3.5-1.2-5.6-1.2s-5.3.6-7.2,1.7c-1.9,1.1-3.3,2.8-4.2,5.1-.9,2.2-1.3,4.9-1.3,8.1v2.1c0,3.3.5,6,1.4,8.3.9,2.2,2.3,3.8,4.1,5,1.9,1.1,4.3,1.6,7.2,1.6s4.3-.4,5.9-1.2c1.7-.8,3-1.9,3.9-3.4.8-1.3,1.2-2.8,1.3-4.6,0-.5.4-.9.9-.9h8c.5,0,.9.4.9.9-.1,3.7-1,6.9-2.7,9.4-1.8,2.7-4.3,4.8-7.4,6.1-3.2,1.3-6.8,2-10.9,2Z"/>
  <path class="cls-3" d="M595,112c-.6,0-1.1-.6-.8-1.2l17.3-45c.1-.3.5-.6.8-.6h11.3c.4,0,.7.2.8.6l17.3,45c.2.6-.2,1.2-.8,1.2h-9c-.4,0-.7-.2-.8-.6l-2.9-8c-.1-.4-.5-.6-.8-.6h-19.1c-.4,0-.7.2-.8.6l-2.9,8c-.1.4-.5.6-.8.6h-8.6ZM610.9,93.4c-.2.6.2,1.2.8,1.2h12c.6,0,1.1-.6.8-1.2l-3.7-10.3c-.2-.5-.4-1.1-.7-1.8-.2-.7-.5-1.5-.8-2.4-.3-.9-.5-1.7-.8-2.5-.2-.8-.4-1.5-.6-2.1,0-.1-.1-.2-.3-.2s-.2,0-.3.2c-.2.8-.5,1.8-.8,2.9-.4,1.1-.7,2.3-1.1,3.3-.4,1-.7,1.9-.9,2.6l-3.7,10.3Z"/>
  <path class="cls-1" d="M77.9.8c-10.3,1.3-20.5,4.3-29.9,9.2-.1,0-.2.1-.3.2-7.9,4.5-14.4,10.9-18.9,20.4-6.9,16.8-6.4,35.8,1.5,52.3,4.6,9.7,11.9,18.3,20.2,26.6,4.2,4.2,8.5,8.2,12.9,12.3l.4.4c4.2,3.9,8.5,7.8,12.4,11.8,7,7,18.4,7,25.4,0,7-7,7-18.4,0-25.4-3.6-3.6-7.4-7.3-11.1-10.9-7.7-7.5-15.6-15.2-22.9-23.1-2.8-3-4.9-6.6-6.1-10.3-3.4-10-1.1-21.4,6.9-29.4,11.2-11.2,29.3-11.2,40.5,0,3.8,3.8,7.9,7.6,12.2,11.6l.4.3c4.4,4,8.9,8.2,13.2,12.6,8.6,8.7,16.9,18.3,22.2,29.6,6.2,13,8.5,27.3,6.8,41.3-.1.9,1.1,1.4,1.6.6,11.4-20.6,14.5-45.6,7.3-68.8-4.1-13.2-11.3-25.6-21.8-36C136.4,11.6,118.4,3.3,99.8.9c-7.3-.9-14.7-1-21.9,0ZM151.7,136.4c-4.2,14.7-12.1,23.6-22.2,29.4-4.4,2.3-8.9,4.2-13.6,5.7-5.2,1.6-10.8,2.8-16.7,3.7-25.9,3.1-52.9-5.2-72.7-25.1h0s0,0,0,0c-13.2-13.2-21.4-29.7-24.4-46.8-3.5-20.2.4-41.1,10.4-58.8.5-.8,1.7-.3,1.6.6-1.9,14.3.3,29.1,6.7,42.4,5.4,11.3,13.6,20.9,22.2,29.6,4.3,4.3,8.8,8.5,13.2,12.6l.4.3c4.3,3.9,8.4,7.8,12.2,11.6,11.2,11.2,29.3,11.2,40.5,0,11.2-11.2,11.2-29.3,0-40.4h0c-3.8-3.8-7.7-7.6-11.5-11.3-7.6-7.4-15.1-14.7-22.3-22.5-1.8-1.9-3.1-4.1-3.8-6.4-2.1-6.3-.7-13.5,4.3-18.5,7-7,18.4-7,25.4,0,4,4,8.2,7.9,12.4,11.8l.4.4c4.4,4.1,8.7,8.1,12.9,12.3,8.3,8.4,15.6,17,20.2,26.6,6.4,13.4,7.9,28.7,4.5,42.9Z"/>
  <path class="cls-4" d="M47.9,10.1c9.4-4.9,19.6-8,29.9-9.2,7.3-.9,14.7-.9,21.9,0,18.6,2.4,36.6,10.7,50.9,25,10.5,10.4,17.7,22.8,21.8,36,7.2,23.1,4.1,48.1-7.3,68.8-.4.8-1.7.4-1.6-.6,1.7-14-.6-28.3-6.8-41.3-5.4-11.2-13.6-20.9-22.2-29.6-4.3-4.3-8.8-8.5-13.2-12.6l-.4-.3c-4.3-3.9-8.4-7.8-12.2-11.6-11.2-11.2-29.3-11.2-40.5,0-8,8-10.3,19.4-6.9,29.4,1.3,3.7,3.3,7.2,6.1,10.3,7.4,7.9,15.2,15.6,22.9,23.1,3.8,3.7,7.5,7.3,11.1,10.9,7,7,7,18.4,0,25.4-7,7-18.4,7-25.4,0-4-4-8.2-7.9-12.4-11.8l-.4-.4c-4.4-4.1-8.7-8.1-12.9-12.3-8.3-8.4-15.6-17-20.2-26.6-7.9-16.4-8.4-35.5-1.5-52.3,4.5-9.4,11-15.9,18.9-20.4.1,0,.2-.1.3-.2Z"/>
  <path class="cls-2" d="M129.4,165.8c10.1-5.8,18-14.7,22.2-29.4,3.4-14.3,1.9-29.5-4.5-42.9-4.6-9.6-11.9-18.3-20.2-26.6-4.2-4.2-8.5-8.2-12.9-12.3l-.4-.4c-4.2-3.9-8.5-7.8-12.4-11.8-7-7-18.4-7-25.4,0-5,5-6.4,12.2-4.3,18.5.8,2.3,2.1,4.5,3.8,6.4,7.2,7.8,14.7,15.1,22.3,22.5,3.8,3.7,7.6,7.4,11.5,11.3h0c11.2,11.2,11.2,29.3,0,40.4-11.2,11.2-29.3,11.2-40.5,0-3.8-3.8-7.9-7.6-12.2-11.6l-.4-.3c-4.4-4-8.9-8.2-13.2-12.6-8.6-8.7-16.9-18.3-22.2-29.6-6.4-13.3-8.6-28.1-6.7-42.4.1-.9-1.1-1.4-1.6-.6C2.4,62.2-1.6,83.1,2,103.3c3,17.1,11.1,33.5,24.4,46.8h0s0,0,0,0c19.9,19.8,46.8,28.2,72.7,25.1,5.9-.9,11.5-2.1,16.7-3.7l13.6-5.7Z"/>
</svg>